Coordinates
version=1
nRows=14
nColumns=24
inDegrees=yes

Units are S.I. units (second, meters, Newtons, ...)
Angles are in degrees.

endheader
time	pelvis_tilt	pelvis_list	pelvis_rotation	pelvis_tx	pelvis_ty	pelvis_tz	hip_flexion_r	hip_adduction_r	hip_rotation_r	knee_angle_r	ankle_angle_r	subtalar_angle_r	mtp_angle_r	hip_flexion_l	hip_adduction_l	hip_rotation_l	knee_angle_l	ankle_angle_l	subtalar_angle_l	mtp_angle_l	lumbar_extension	lumbar_bending	lumbar_rotation
      0.44200000	      1.36312147	      3.47631340	      0.01453381	     -0.86131666	      1.00291516	      0.30842098	     22.19164970	     -2.54492217	    -10.17460727	     -1.02861711	     -0.31738662	     -7.81500143	     -5.36628055	    -13.08063261	      4.64507027	     -8.54281726	     -8.38031865	     13.34616111	     -5.77036399	    -13.13964000	    -13.51912920	     -3.76486550	     -2.98059280
      0.44616667	      1.57740898	      3.36477740	      0.04962999	     -0.85519656	      1.00245333	      0.30837407	     22.03442160	     -2.42075228	    -10.00075008	     -1.72496957	     -0.48335092	     -8.07273502	     -5.28021633	    -13.43872951	      4.47105502	     -8.47916008	     -8.90863817	     13.50630787	     -5.72592750	    -13.15358868	    -13.73829618	     -3.51318965	     -3.08352779
      0.45033333	      1.78355446	      3.23723144	      0.09034110	     -0.84899380	      1.00202569	      0.30833330	     21.86489669	     -2.27919998	     -9.84037926	     -2.42816142	     -0.69223949	     -8.34958195	     -5.18386260	    -13.76721718	      4.27323112	     -8.42922566	     -9.48710753	     13.66898969	     -5.65355024	    -13.15153234	    -13.93878381	     -3.23495941	     -3.15746292
      0.45450000	      1.97914636	      3.12659663	      0.12486234	     -0.84279206	      1.00161733	      0.30832452	     21.70338483	     -2.14966628	     -9.66153106	     -3.15054077	     -0.93528593	     -8.66973099	     -5.08725617	    -14.06437379	      4.09368584	     -8.36464019	    -10.09540157	     13.77006139	     -5.63154918	    -13.13237475	    -14.12754493	     -2.97979757	     -3.23305142
      0.45866667	      2.17162475	      3.01291601	      0.16002667	     -0.83652424	      1.00123938	      0.30831467	     21.53158961	     -2.01654982	     -9.50124608	     -3.87551350	     -1.21597460	     -9.02694742	     -5.00786219	    -14.34719315	      3.90859102	     -8.29893537	    -10.73735803	     13.86294826	     -5.59981189	    -13.10114725	    -14.29785714	     -2.71558024	     -3.29572588
      0.46283333	      2.35922639	      2.89562750	      0.19685439	     -0.83025132	      1.00091085	      0.30835889	     21.33841950	     -1.87100028	     -9.31711508	     -4.55799254	     -1.57482203	     -9.44660222	     -4.91933003	    -14.58039760	      3.70789352	     -8.26565146	    -11.45656644	     13.88450462	     -5.56465199	    -13.04974639	    -14.47229747	     -2.45231327	     -3.37309892
      0.46700000	      2.57668975	      2.75226239	      0.18871944	     -0.82392338	      1.00066234	      0.30853007	     21.08675457	     -1.67355035	     -9.07835343	     -5.18799180	     -1.99401244	     -9.88864808	     -4.74739149	    -14.82862013	      3.47766783	     -8.32336363	    -12.21924961	     13.89658168	     -5.48679724	    -12.91890277	    -14.67518378	     -2.16643677	     -3.42177523
      0.47116667	      2.74676181	      2.63787783	      0.22510809	     -0.81759148	      1.00041778	      0.30862809	     20.86762084	     -1.52157616	     -8.87853744	     -5.79168151	     -2.46000840	    -10.38511059	     -4.60574539	    -14.98344639	      3.26861442	     -8.30316358	    -13.04946405	     13.81966483	     -5.47243160	    -12.77498722	    -14.82547968	     -1.91112468	     -3.47033581
      0.47533333	      2.92314726	      2.51814868	      0.22828952	     -0.81125130	      1.00021849	      0.30880982	     20.63497812	     -1.34985559	     -8.66432886	     -6.37101640	     -2.98879466	    -10.92200666	     -4.43874702	    -15.11815151	      3.05375912	     -8.33141964	    -13.93450921	     13.72649488	     -5.43179904	    -12.56071510	    -14.98038407	     -1.65196371	     -3.51276657
      0.47950000	      3.04395906	      2.41844206	      0.27427919	     -0.80491015	      1.00001774	      0.30891123	     20.44732137	     -1.21648767	     -8.50503352	     -6.92676570	     -3.53486449	    -11.48348145	     -4.33396289	    -15.14568434	      2.85085069	     -8.28984344	    -14.89438108	     13.52923230	     -5.46269360	    -12.38844507	    -15.06893418	     -1.40686338	     -3.52693569
      0.48366667	      3.23848904	      2.28235026	      0.23069304	     -0.79854070	      0.99994967	      0.30927249	     20.15554452	     -1.00088876	     -8.24241231	     -7.40420486	     -4.18183940	    -12.07923351	     -4.13509012	    -15.22447160	      2.60406857	     -8.42981802	    -15.91702949	     13.36266946	     -5.36002593	    -12.00273613	    -15.25096949	     -1.15147789	     -3.54732718
      0.48783333	      3.32373676	      2.21866102	      0.30034623	     -0.79226780	      0.99982148	      0.30929993	     19.99617772	     -0.92723264	     -8.15990297	     -7.92356861	     -4.79115716	    -12.56244844	     -4.09220418	    -15.11711196	      2.43417953	     -8.31709567	    -17.03593568	     13.08853480	     -5.48299586	    -11.88313870	    -15.31400855	     -0.94532099	     -3.48882000
      0.49200000	      3.48111899	      2.05990916	      0.19363507	     -0.78586267	      0.99978927	      0.30989351	     19.71463915	     -0.65309416	     -7.81814461	     -8.31762160	     -5.51545720	    -13.30145108	     -3.89071711	    -15.07027938	      2.14477478	     -8.60001582	    -18.22393491	     12.78348968	     -5.33101124	    -11.30153643	    -15.43878536	     -0.68393639	     -3.50772531
      0.49616667	      3.50181375	      1.96648335	      0.16559281	     -0.77951106	      0.99962972	      0.31022416	     19.60888033	     -0.50453237	     -7.64469074	     -8.78036977	     -6.17029749	    -13.89209556	     -1.57392078	    -14.81064212	      1.92838836	     -8.68766482	    -19.49054393	     12.28573945	     -5.49228025	     -2.67467387	    -15.41086700	     -0.47169445	     -3.37034756
